<?xml version="1.0"?>
<svg xmlns="http://www.w3.org/2000/svg" xmlns:xlink="http://www.w3.org/1999/xlink" viewBox="0 0 512 512" width="512" height="512"><defs><linearGradient id="linear-gradient" x1="16" y1="260" x2="496" y2="260" gradientUnits="userSpaceOnUse"><stop offset="0" stop-color="#41dfd0"/><stop offset="1" stop-color="#ee83ef"/></linearGradient></defs><g id="gradient"><path d="M489.315,176.109l-46.371-7.729A160.023,160.023,0,0,0,288,48H136a8,8,0,0,0-8,8V168H100.24a84.129,84.129,0,0,0-75.96,48H24v.6c-.674,1.459-1.321,2.932-1.909,4.432A82.2,82.2,0,0,0,16,252.24V256a8,8,0,0,0,8,8H64.679A47.973,47.973,0,0,0,128,301.248V464a8,8,0,0,0,8,8h80a8,8,0,0,0,8-8V368h64a160.327,160.327,0,0,0,127.972-64H416a48.057,48.057,0,0,0,47.81-43.857L492.8,238.4A8,8,0,0,0,496,232V184A8,8,0,0,0,489.315,176.109ZM144,64H288a144.228,144.228,0,0,1,134.277,92.036l-58.161-34.9A8,8,0,0,0,360,120H216a8,8,0,0,0-4.8,1.6L149.333,168H144Zm241.682,88.739L365.333,168H304V136h53.784ZM288,136v32H176l42.667-32ZM64.679,248H32.131a66.124,66.124,0,0,1,2.99-16H56V216H42.462a68.249,68.249,0,0,1,57.778-32H272v37.333L252,248H159.321a47.991,47.991,0,0,0-94.642,0Zm260.572,16A71.189,71.189,0,0,1,280,280H224V264ZM112,288a32,32,0,1,1,32-32A32.036,32.036,0,0,1,112,288Zm176,64H216a8,8,0,0,0-8,8v96H144V291.739A47.974,47.974,0,0,0,159.321,264H208v24a8,8,0,0,0,8,8h64a87.042,87.042,0,0,0,67.8-32h20.881a48.141,48.141,0,0,0,29.57,36.583A144.295,144.295,0,0,1,288,352Zm128-64a32,32,0,1,1,32-32A32.036,32.036,0,0,1,416,288Zm64-88H464v16h16v12l-18.194,13.646A48,48,0,0,0,368.679,248H272l14.4-19.2A8,8,0,0,0,288,224V184h80a8,8,0,0,0,4.8-1.6l27.7-20.773,35.387,21.233a8.011,8.011,0,0,0,2.8,1.031L480,190.777ZM128,256a16,16,0,1,1-16-16A16,16,0,0,1,128,256Zm304,0a16,16,0,1,1-16-16A16,16,0,0,1,432,256ZM256,216H216V200h40Z" style="fill:url(#linear-gradient)"/></g></svg>
